<svg id="svg" version="1.1" xmlns="http://www.w3.org/2000/svg" xmlns:xlink="http://www.w3.org/1999/xlink" width="400" height="399.23518164435944" viewBox="0, 0, 400,399.23518164435944"><g id="svgg"><path id="path0" d="M121.709 75.900 C 114.240 76.906,109.660 78.463,105.163 81.524 C 103.795 82.454,101.902 83.743,100.956 84.387 C 100.010 85.032,98.289 85.777,97.132 86.044 C 78.684 90.298,73.673 93.189,73.681 99.575 C 73.687 104.891,76.714 108.060,85.468 111.914 C 89.889 113.860,97.797 114.546,106.883 113.773 C 114.764 113.103,110.719 116.844,97.975 122.014 C 96.230 122.721,94.251 123.762,93.577 124.326 L 92.352 125.351 94.212 127.016 C 97.788 130.216,99.638 130.603,105.967 129.474 C 111.012 128.574,126.938 121.339,131.376 117.931 C 139.108 111.993,138.678 112.177,140.440 114.054 C 145.365 119.298,143.537 124.084,131.350 137.859 C 113.595 157.925,104.775 173.170,100.374 191.396 C 91.690 227.358,101.401 264.261,126.376 290.201 C 147.271 311.904,182.353 325.073,210.516 321.783 C 268.516 315.010,307.460 273.230,307.457 217.784 C 307.455 187.937,298.856 168.010,272.886 137.667 C 260.884 123.645,258.908 117.992,264.475 113.613 C 265.945 112.457,266.011 112.483,271.007 116.163 C 275.968 119.818,277.929 120.923,286.718 125.014 C 299.457 130.944,305.525 131.497,310.304 127.163 L 312.196 125.448 311.314 124.509 C 310.829 123.993,309.031 123.015,307.319 122.337 C 302.298 120.348,295.899 117.137,294.455 115.881 C 292.146 113.872,293.035 113.653,302.591 113.873 C 319.676 114.268,331.154 108.411,331.164 99.293 C 331.171 93.476,325.652 90.270,308.987 86.410 C 306.393 85.809,304.807 85.192,303.442 84.253 C 302.390 83.530,300.422 82.174,299.068 81.240 C 289.377 74.555,268.539 73.295,257.821 78.746 C 243.597 85.978,234.220 101.886,235.372 116.826 C 236.328 129.228,239.690 136.366,252.360 152.898 C 267.735 172.958,272.879 182.629,276.805 198.853 C 287.360 242.468,257.863 285.666,213.470 291.605 C 145.903 300.644,102.215 228.548,139.777 169.993 C 142.473 165.791,147.282 159.184,152.173 152.964 C 168.846 131.760,173.021 118.540,167.884 103.209 C 161.057 82.830,144.213 72.868,121.709 75.900 M123.901 90.174 C 123.901 90.929,121.534 94.058,119.565 95.908 C 114.836 100.347,106.692 102.172,106.692 98.794 C 106.692 97.600,105.142 96.655,103.591 96.903 C 99.286 97.592,105.368 93.590,111.622 91.620 C 116.394 90.117,123.901 89.233,123.901 90.174 M292.112 91.189 C 296.068 92.273,301.113 94.713,302.529 96.227 L 303.442 97.203 301.663 96.938 C 299.814 96.664,298.279 97.505,298.279 98.794 C 298.279 100.903,294.263 101.070,290.130 99.132 C 286.588 97.471,281.071 91.981,281.071 90.118 C 281.071 89.458,288.377 90.166,292.112 91.189 M85.915 117.570 C 84.689 118.074,82.108 119.525,80.179 120.793 C 74.738 124.372,70.825 125.899,65.679 126.451 C 63.299 126.706,63.004 127.019,64.340 127.877 C 66.851 129.489,73.536 130.117,76.828 129.050 C 78.781 128.417,76.377 134.389,73.090 138.337 C 70.922 140.941,71.062 141.338,73.545 139.622 C 77.196 137.100,80.641 132.856,84.133 126.577 C 85.245 124.579,86.903 121.726,87.819 120.236 C 90.263 116.259,90.000 115.891,85.915 117.570 M314.723 116.822 C 314.723 116.925,315.465 118.173,316.372 119.595 C 317.280 121.016,318.939 123.815,320.060 125.813 C 323.925 132.705,327.462 137.151,331.044 139.623 C 333.565 141.363,333.661 140.933,331.382 138.112 C 329.234 135.454,327.628 132.403,327.143 130.058 L 326.874 128.759 328.160 129.102 C 331.101 129.886,336.568 129.508,338.920 128.357 C 341.356 127.165,341.695 126.577,339.946 126.577 C 335.880 126.577,330.147 124.639,325.562 121.716 C 319.216 117.669,314.723 115.640,314.723 116.822 " stroke="none" fill="#36eb24" fill-rule="evenodd"></path><path id="path1" d="M0.000 199.618 L 0.000 399.235 200.000 399.235 L 400.000 399.235 400.000 199.618 L 400.000 0.000 200.000 0.000 L 0.000 0.000 0.000 199.618 M140.344 76.283 C 157.949 80.345,171.414 99.827,169.455 118.402 C 168.222 130.092,164.841 136.854,152.173 152.964 C 147.282 159.184,142.473 165.791,139.777 169.993 C 102.215 228.548,145.903 300.644,213.470 291.605 C 266.223 284.547,294.341 228.361,269.728 179.190 C 265.347 170.437,262.505 166.134,252.360 152.898 C 239.690 136.366,236.328 129.228,235.372 116.826 C 234.220 101.886,243.597 85.978,257.821 78.746 C 268.539 73.295,289.377 74.555,299.068 81.240 C 300.422 82.174,302.390 83.530,303.442 84.253 C 304.807 85.192,306.393 85.809,308.987 86.410 C 327.997 90.813,332.953 94.518,330.749 102.677 C 330.076 105.168,326.647 108.133,321.520 110.659 C 315.347 113.700,312.923 114.112,302.591 113.873 C 293.035 113.653,292.146 113.872,294.455 115.881 C 295.899 117.137,302.298 120.348,307.319 122.337 C 309.031 123.015,310.829 123.993,311.314 124.509 L 312.196 125.448 310.304 127.163 C 305.525 131.497,299.457 130.944,286.718 125.014 C 277.929 120.923,275.968 119.818,271.007 116.163 C 266.011 112.483,265.945 112.457,264.475 113.613 C 258.908 117.992,260.884 123.645,272.886 137.667 C 298.856 168.010,307.455 187.937,307.457 217.784 C 307.460 273.230,268.516 315.010,210.516 321.783 C 182.353 325.073,147.271 311.904,126.376 290.201 C 101.401 264.261,91.690 227.358,100.374 191.396 C 104.775 173.170,113.595 157.925,131.350 137.859 C 143.537 124.084,145.365 119.298,140.440 114.054 C 138.678 112.177,139.108 111.993,131.376 117.931 C 126.938 121.339,111.012 128.574,105.967 129.474 C 99.638 130.603,97.788 130.216,94.212 127.016 L 92.352 125.351 93.577 124.326 C 94.251 123.762,96.230 122.721,97.975 122.014 C 110.719 116.844,114.764 113.103,106.883 113.773 C 87.559 115.417,73.692 109.487,73.681 99.575 C 73.673 93.189,78.684 90.298,97.132 86.044 C 98.289 85.777,100.010 85.032,100.956 84.387 C 101.902 83.743,103.795 82.454,105.163 81.524 C 112.971 76.209,129.410 73.761,140.344 76.283 M116.785 90.282 C 112.277 91.036,106.964 93.075,103.728 95.291 C 101.694 96.684,101.649 97.214,103.591 96.903 C 105.142 96.655,106.692 97.600,106.692 98.794 C 106.692 102.172,114.836 100.347,119.565 95.908 C 121.534 94.058,123.901 90.929,123.901 90.174 C 123.901 89.783,119.353 89.853,116.785 90.282 M281.071 90.118 C 281.071 91.981,286.588 97.471,290.130 99.132 C 294.263 101.070,298.279 100.903,298.279 98.794 C 298.279 97.505,299.814 96.664,301.663 96.938 L 303.442 97.203 302.529 96.227 C 301.113 94.713,296.068 92.273,292.112 91.189 C 288.377 90.166,281.071 89.458,281.071 90.118 M89.484 117.081 C 89.484 117.326,88.735 118.746,87.819 120.236 C 86.903 121.726,85.245 124.579,84.133 126.577 C 80.641 132.856,77.196 137.100,73.545 139.622 C 71.062 141.338,70.922 140.941,73.090 138.337 C 76.377 134.389,78.781 128.417,76.828 129.050 C 73.536 130.117,66.851 129.489,64.340 127.877 C 63.004 127.019,63.299 126.706,65.679 126.451 C 70.825 125.899,74.738 124.372,80.179 120.793 C 85.029 117.603,89.484 115.826,89.484 117.081 M319.503 118.107 C 320.975 118.906,323.702 120.530,325.562 121.716 C 330.147 124.639,335.880 126.577,339.946 126.577 C 341.695 126.577,341.356 127.165,338.920 128.357 C 336.568 129.508,331.101 129.886,328.160 129.102 L 326.874 128.759 327.143 130.058 C 327.628 132.403,329.234 135.454,331.382 138.112 C 333.661 140.933,333.565 141.363,331.044 139.623 C 327.462 137.151,323.925 132.705,320.060 125.813 C 318.939 123.815,317.280 121.016,316.372 119.595 C 315.465 118.173,314.723 116.925,314.723 116.822 C 314.723 116.195,317.213 116.865,319.503 118.107 " stroke="none" fill="#151a1b" fill-rule="evenodd"></path></g></svg>